<svg xmlns="http://www.w3.org/2000/svg" width="16" height="16" viewBox="0 0 16 16" fill="none"><path fill-rule="evenodd" clip-rule="evenodd" d="M10.5289 0.666992C10.8049 0.666992 11.0289 0.890992 11.0289 1.16699L11.0292 1.7322C12.0026 1.79894 12.8111 2.13236 13.3833 2.70573C14.0079 3.33306 14.3366 4.23506 14.3333 5.31706V11.3991C14.3333 13.6204 12.9226 15.0004 10.6526 15.0004H5.01392C2.74392 15.0004 1.33325 13.6011 1.33325 11.3484V5.31573C1.33325 3.22052 2.59129 1.87562 4.64304 1.73243L4.64345 1.16699C4.64345 0.890992 4.86745 0.666992 5.14345 0.666992C5.41945 0.666992 5.64345 0.890992 5.64345 1.16699L5.64325 1.71966H10.0286L10.0289 1.16699C10.0289 0.890992 10.2529 0.666992 10.5289 0.666992ZM13.3333 6.60299H2.33325V11.3484C2.33325 13.0591 3.28525 14.0004 5.01392 14.0004H10.6526C12.3813 14.0004 13.3333 13.0764 13.3333 11.3991L13.3333 6.60299ZM10.8007 10.7979C11.0767 10.7979 11.3007 11.0219 11.3007 11.2979C11.3007 11.5739 11.0767 11.7979 10.8007 11.7979C10.5247 11.7979 10.2981 11.5739 10.2981 11.2979C10.2981 11.0219 10.5187 10.7979 10.7947 10.7979H10.8007ZM7.84239 10.7979C8.11839 10.7979 8.34239 11.0219 8.34239 11.2979C8.34239 11.5739 8.11839 11.7979 7.84239 11.7979C7.56639 11.7979 7.33972 11.5739 7.33972 11.2979C7.33972 11.0219 7.56039 10.7979 7.83639 10.7979H7.84239ZM4.87785 10.7979C5.15385 10.7979 5.37785 11.0219 5.37785 11.2979C5.37785 11.5739 5.15385 11.7979 4.87785 11.7979C4.60185 11.7979 4.37452 11.5739 4.37452 11.2979C4.37452 11.0219 4.59585 10.7979 4.87185 10.7979H4.87785ZM10.8007 8.20673C11.0767 8.20673 11.3007 8.43073 11.3007 8.70673C11.3007 8.98273 11.0767 9.20673 10.8007 9.20673C10.5247 9.20673 10.2981 8.98273 10.2981 8.70673C10.2981 8.43073 10.5187 8.20673 10.7947 8.20673H10.8007ZM7.84239 8.20673C8.11839 8.20673 8.34239 8.43073 8.34239 8.70673C8.34239 8.98273 8.11839 9.20673 7.84239 9.20673C7.56639 9.20673 7.33972 8.98273 7.33972 8.70673C7.33972 8.43073 7.56039 8.20673 7.83639 8.20673H7.84239ZM4.87785 8.20673C5.15385 8.20673 5.37785 8.43073 5.37785 8.70673C5.37785 8.98273 5.15385 9.20673 4.87785 9.20673C4.60185 9.20673 4.37452 8.98273 4.37452 8.70673C4.37452 8.43073 4.59585 8.20673 4.87185 8.20673H4.87785ZM10.0286 2.71966H5.64325L5.64345 3.36099C5.64345 3.63699 5.41945 3.86099 5.14345 3.86099C4.86745 3.86099 4.64345 3.63699 4.64345 3.36099L4.6431 2.73479C3.14961 2.86025 2.33325 3.76556 2.33325 5.31573V5.60299H13.3333L13.3333 5.31573C13.3359 4.49239 13.1146 3.85239 12.6753 3.41239C12.2896 3.0256 11.7258 2.79459 11.0295 2.73511L11.0289 3.36099C11.0289 3.63699 10.8049 3.86099 10.5289 3.86099C10.2529 3.86099 10.0289 3.63699 10.0289 3.36099L10.0286 2.71966Z" fill="#121212"></path></svg>