<svg xmlns="http://www.w3.org/2000/svg" width="80" height="80" viewBox="0 0 80 80" fill="none">
            <path d="M35.9685 24.9971L56.2972 45.3271L8.12598 73.1697L35.9685 24.9971Z" fill="#F8B545" stroke="#F8B545" stroke-linecap="round" stroke-linejoin="round"/>
            <path fill-rule="evenodd" clip-rule="evenodd" d="M33.7996 28.75L32.4683 31.0526C32.6286 31.1399 32.8061 31.1911 32.9883 31.2025L41.4421 31.7587C41.6147 31.7701 41.7879 31.7457 41.9505 31.6867C42.1132 31.6278 42.2619 31.5356 42.3871 31.4162L40.1371 29.1675L33.7996 28.75ZM29.6133 35.9912L28.2683 38.3188C28.4137 38.3883 28.5712 38.429 28.7321 38.4387L49.4446 39.8012C49.6244 39.8205 49.8063 39.8006 49.9776 39.7427C50.149 39.6849 50.3057 39.5906 50.4371 39.4662L48.1833 37.2162L29.6133 35.9912ZM25.4296 43.2324L24.0621 45.5988C24.1727 45.6386 24.2885 45.6626 24.4058 45.67L52.5058 47.5175L55.6633 45.6937C55.5513 45.532 55.4026 45.3992 55.2295 45.3058C55.0564 45.2124 54.8637 45.1611 54.6671 45.1562L25.4296 43.2338V43.2324ZM21.2421 50.4738L19.8946 52.805C20.0271 52.8613 20.1696 52.9075 20.3396 52.9175L31.4871 53.6501L40.8371 54.2625L44.6433 52.0625C44.5496 52.0375 44.4683 51.995 44.3596 51.9875L31.6496 51.1575L21.2421 50.4738ZM17.0583 57.7174L15.7271 60.015C15.8821 60.0975 16.0621 60.1537 16.2746 60.1662L29.0796 61.0574L32.9483 58.8213L17.0583 57.7174ZM12.8708 64.9588L11.5283 67.2838C11.6671 67.3463 11.8208 67.3925 12.0021 67.4037L17.4221 67.7962L21.2771 65.5675L12.8708 64.9588Z" fill="#FECB5B"/>
            <path d="M43.2623 14.46C44.4418 15.5764 45.3729 16.9288 45.9949 18.4291C46.6169 19.9294 46.9159 21.5439 46.8723 23.1674C46.8286 24.791 46.4434 26.3872 45.7417 27.852C45.04 29.3167 44.0376 30.6172 42.7998 31.6687" stroke="#3A90CD" stroke-linecap="round" stroke-linejoin="round"/>
            <path d="M35.9685 24.9971L56.2972 45.3271L8.12598 73.1697L35.9685 24.9971Z" stroke="#004463" stroke-linecap="round" stroke-linejoin="round"/>
            <path d="M53.1338 36.9153C55.7441 35.2469 58.7779 34.3604 61.8763 34.3604C64.9748 34.3604 68.0084 35.2469 70.6188 36.9153" stroke="#3A90CD" stroke-linecap="round" stroke-linejoin="round"/>
            <path d="M25.6172 11.9199C25.2879 11.9201 24.9643 11.8335 24.679 11.6689C24.3937 11.5043 24.1569 11.2676 23.9922 10.9824C23.8276 10.6974 23.741 10.3741 23.741 10.0449C23.741 9.71579 23.8276 9.39246 23.9922 9.10742C24.1569 8.82221 24.3937 8.58535 24.679 8.42078C24.9643 8.2562 25.2879 8.16971 25.6172 8.16992" stroke="#ED4A4B" stroke-linecap="round" stroke-linejoin="round"/>
            <path d="M25.6172 15.6699C25.2879 15.6701 24.9643 15.5835 24.679 15.4189C24.3937 15.2543 24.1569 15.0176 23.9922 14.7324C23.8276 14.4474 23.741 14.1241 23.741 13.7949C23.741 13.4658 23.8276 13.1425 23.9922 12.8574C24.1569 12.5722 24.3937 12.3354 24.679 12.1708C24.9643 12.0062 25.2879 11.9197 25.6172 11.9199" stroke="#ED4A4B" stroke-linecap="round" stroke-linejoin="round"/>
            <path d="M25.6172 19.4199C25.2879 19.4201 24.9643 19.3335 24.679 19.1689C24.3937 19.0043 24.1569 18.7676 23.9922 18.4824C23.8276 18.1974 23.741 17.8741 23.741 17.5449C23.741 17.2158 23.8276 16.8925 23.9922 16.6074C24.1569 16.3222 24.3937 16.0854 24.679 15.9208C24.9643 15.7562 25.2879 15.6697 25.6172 15.6699" stroke="#ED4A4B" stroke-linecap="round" stroke-linejoin="round"/>
            <path d="M25.6172 23.1699C25.2879 23.1701 24.9643 23.0835 24.679 22.9189C24.3937 22.7543 24.1569 22.5176 23.9922 22.2324C23.8276 21.9474 23.741 21.6241 23.741 21.2949C23.741 20.9658 23.8276 20.6425 23.9922 20.3574C24.1569 20.0722 24.3937 19.8354 24.679 19.6708C24.9643 19.5062 25.2879 19.4197 25.6172 19.4199" stroke="#ED4A4B" stroke-linecap="round" stroke-linejoin="round"/>
            <path d="M54.8857 24.7314C55.0503 25.0165 55.2871 25.2531 55.5721 25.4177C55.8572 25.5822 56.1804 25.669 56.5096 25.669C56.8387 25.669 57.162 25.5823 57.447 25.4177C57.7321 25.2532 57.9688 25.0165 58.1334 24.7315C58.2979 24.4465 58.3846 24.123 58.3846 23.7939C58.3846 23.4648 58.2979 23.1415 58.1333 22.8564C58.2979 23.1415 58.5347 23.3781 58.8197 23.5427C59.1048 23.7072 59.428 23.794 59.7572 23.794C60.0863 23.794 60.4096 23.7073 60.6946 23.5427C60.9797 23.3782 61.2164 23.1415 61.381 22.8565C61.5455 22.5715 61.6322 22.248 61.6322 21.9189C61.6322 21.5898 61.5455 21.2665 61.3809 20.9814C61.5455 21.2665 61.7823 21.5031 62.0673 21.6677C62.3524 21.8322 62.6756 21.919 63.0048 21.919C63.3339 21.919 63.6572 21.8323 63.9422 21.6677C64.2273 21.5032 64.464 21.2665 64.6285 20.9815C64.7931 20.6965 64.8798 20.373 64.8798 20.0439C64.8798 19.7148 64.7931 19.3915 64.6285 19.1064C64.7931 19.3915 65.0299 19.6281 65.3149 19.7927C65.6 19.9572 65.9232 20.044 66.2523 20.044C66.5815 20.044 66.9048 19.9573 67.1898 19.7927C67.4749 19.6282 67.7116 19.3915 67.8761 19.1065C68.0407 18.8215 68.1274 18.498 68.1274 18.1689C68.1274 17.8398 68.0407 17.5165 67.8761 17.2314" stroke="#ED4A4B" stroke-linecap="round" stroke-linejoin="round"/>
            <path d="M45.6196 64.7324C45.4547 64.4473 45.3678 64.1238 45.3677 63.7944C45.3676 63.4651 45.4543 63.1415 45.619 62.8563C45.7835 62.5713 46.0202 62.3346 46.3053 62.1701C46.5903 62.0055 46.9136 61.9188 47.2428 61.9188C47.5721 61.9188 47.8955 62.0056 48.1807 62.1704C48.4658 62.3351 48.7027 62.5721 48.8672 62.8574" stroke="#ED4A4B" stroke-linecap="round" stroke-linejoin="round"/>
            <path d="M42.3715 66.6074C42.2067 66.3223 42.1198 65.9988 42.1197 65.6694C42.1196 65.3401 42.2062 65.0165 42.3709 64.7313C42.5355 64.4463 42.7722 64.2096 43.0572 64.0451C43.3423 63.8805 43.6656 63.7938 43.9947 63.7938C44.324 63.7938 44.6475 63.8806 44.9326 64.0454C45.2178 64.2101 45.4547 64.4471 45.6191 64.7324" stroke="#ED4A4B" stroke-linecap="round" stroke-linejoin="round"/>
            <path d="M39.1245 68.4824C38.9596 68.1973 38.8727 67.8738 38.8726 67.5444C38.8725 67.2151 38.9592 66.8915 39.1238 66.6063C39.2884 66.3213 39.5251 66.0846 39.8102 65.9201C40.0952 65.7555 40.4185 65.6688 40.7476 65.6688C41.077 65.6688 41.4004 65.7556 41.6856 65.9204C41.9707 66.0851 42.2076 66.3221 42.3721 66.6074" stroke="#ED4A4B" stroke-linecap="round" stroke-linejoin="round"/>
            <path d="M35.8764 70.3574C35.7116 70.0723 35.6246 69.7488 35.6245 69.4194C35.6244 69.0901 35.7111 68.7665 35.8758 68.4813C36.0404 68.1963 36.2771 67.9596 36.5621 67.7951C36.8472 67.6305 37.1705 67.5438 37.4996 67.5438C37.8289 67.5438 38.1524 67.6306 38.4375 67.7954C38.7227 67.9601 38.9595 68.1971 39.124 68.4824" stroke="#ED4A4B" stroke-linecap="round" stroke-linejoin="round"/>
            <path d="M37.501 20.6699C38.5365 20.6699 39.376 19.8305 39.376 18.7949C39.376 17.7594 38.5365 16.9199 37.501 16.9199C36.4654 16.9199 35.626 17.7594 35.626 18.7949C35.626 19.8305 36.4654 20.6699 37.501 20.6699Z" stroke="#3A90CD" stroke-linecap="round" stroke-linejoin="round"/>
            <path d="M53.751 15.6699C54.7865 15.6699 55.626 14.8305 55.626 13.7949C55.626 12.7594 54.7865 11.9199 53.751 11.9199C52.7154 11.9199 51.876 12.7594 51.876 13.7949C51.876 14.8305 52.7154 15.6699 53.751 15.6699Z" stroke="#FECB5B" stroke-linecap="round" stroke-linejoin="round"/>
            <path d="M63.751 44.4199C64.7865 44.4199 65.626 43.5805 65.626 42.5449C65.626 41.5094 64.7865 40.6699 63.751 40.6699C62.7154 40.6699 61.876 41.5094 61.876 42.5449C61.876 43.5805 62.7154 44.4199 63.751 44.4199Z" stroke="#FECB5B" stroke-linecap="round" stroke-linejoin="round"/>
            <path d="M61.251 60.6699C62.2865 60.6699 63.126 59.8305 63.126 58.7949C63.126 57.7594 62.2865 56.9199 61.251 56.9199C60.2154 56.9199 59.376 57.7594 59.376 58.7949C59.376 59.8305 60.2154 60.6699 61.251 60.6699Z" stroke="#3A90CD" stroke-linecap="round" stroke-linejoin="round"/>
            <path d="M16.251 41.9199C17.2865 41.9199 18.126 41.0805 18.126 40.0449C18.126 39.0094 17.2865 38.1699 16.251 38.1699C15.2154 38.1699 14.376 39.0094 14.376 40.0449C14.376 41.0805 15.2154 41.9199 16.251 41.9199Z" stroke="#FECB5B" stroke-linecap="round" stroke-linejoin="round"/>
            <path d="M23.126 31.2949C23.4712 31.2949 23.751 31.0151 23.751 30.6699C23.751 30.3247 23.4712 30.0449 23.126 30.0449C22.7808 30.0449 22.501 30.3247 22.501 30.6699C22.501 31.0151 22.7808 31.2949 23.126 31.2949Z" fill="#ED4A4B"/>
            <path d="M50.626 33.7949C50.9712 33.7949 51.251 33.5151 51.251 33.1699C51.251 32.8247 50.9712 32.5449 50.626 32.5449C50.2808 32.5449 50.001 32.8247 50.001 33.1699C50.001 33.5151 50.2808 33.7949 50.626 33.7949Z" fill="#3A90CD"/>
            <path d="M69.376 28.7949C69.7212 28.7949 70.001 28.5151 70.001 28.1699C70.001 27.8247 69.7212 27.5449 69.376 27.5449C69.0308 27.5449 68.751 27.8247 68.751 28.1699C68.751 28.5151 69.0308 28.7949 69.376 28.7949Z" fill="#3A90CD"/>
            <path d="M53.126 53.7949C53.4712 53.7949 53.751 53.5151 53.751 53.1699C53.751 52.8247 53.4712 52.5449 53.126 52.5449C52.7808 52.5449 52.501 52.8247 52.501 53.1699C52.501 53.5151 52.7808 53.7949 53.126 53.7949Z" fill="#FECB5B"/>
            <path d="M53.126 67.5449C53.4712 67.5449 53.751 67.2651 53.751 66.9199C53.751 66.5747 53.4712 66.2949 53.126 66.2949C52.7808 66.2949 52.501 66.5747 52.501 66.9199C52.501 67.2651 52.7808 67.5449 53.126 67.5449Z" fill="#3A90CD"/>
            <path d="M29.376 70.0449C29.7212 70.0449 30.001 69.7651 30.001 69.4199C30.001 69.0747 29.7212 68.7949 29.376 68.7949C29.0308 68.7949 28.751 69.0747 28.751 69.4199C28.751 69.7651 29.0308 70.0449 29.376 70.0449Z" fill="#ED4A4B"/>
            <path d="M69.376 51.2949C69.7212 51.2949 70.001 51.0151 70.001 50.6699C70.001 50.3247 69.7212 50.0449 69.376 50.0449C69.0308 50.0449 68.751 50.3247 68.751 50.6699C68.751 51.0151 69.0308 51.2949 69.376 51.2949Z" fill="#FECB5B"/>
            <path d="M39.376 12.5449C39.7212 12.5449 40.001 12.2651 40.001 11.9199C40.001 11.5747 39.7212 11.2949 39.376 11.2949C39.0308 11.2949 38.751 11.5747 38.751 11.9199C38.751 12.2651 39.0308 12.5449 39.376 12.5449Z" fill="#3A90CD"/>
            <path d="M63.126 12.5449C63.4712 12.5449 63.751 12.2651 63.751 11.9199C63.751 11.5747 63.4712 11.2949 63.126 11.2949C62.7808 11.2949 62.501 11.5747 62.501 11.9199C62.501 12.2651 62.7808 12.5449 63.126 12.5449Z" fill="#ED4A4B"/>
          </svg>