<svg xmlns="http://www.w3.org/2000/svg" width="16" height="16" viewBox="0 0 16 16" fill="none">
<g clip-path="url(#clip0_442_4019)">
<path d="M1 8.00047C1.26522 8.00047 1.51957 7.89511 1.70711 7.70757C1.89464 7.52004 2 7.26568 2 7.00047V5.00047H11V7.50047C11.0001 7.59645 11.0278 7.69038 11.0799 7.77104C11.1319 7.85169 11.2061 7.91566 11.2935 7.95531C11.3809 7.99496 11.4779 8.00861 11.5728 7.99463C11.6678 7.98065 11.7567 7.93963 11.829 7.87647L15.829 4.37647C15.8825 4.32954 15.9254 4.27172 15.9548 4.20688C15.9842 4.14203 15.9994 4.07166 15.9994 4.00047C15.9994 3.92928 15.9842 3.8589 15.9548 3.79406C15.9254 3.72922 15.8825 3.6714 15.829 3.62447L11.829 0.124468C11.7567 0.0613093 11.6678 0.0202901 11.5728 0.00630918C11.4779 -0.00767171 11.3809 0.00597673 11.2935 0.0456245C11.2061 0.0852722 11.1319 0.149243 11.0799 0.229898C11.0278 0.310553 11.0001 0.404482 11 0.500468V3.00047H2C1.46957 3.00047 0.960859 3.21118 0.585786 3.58625C0.210714 3.96133 0 4.47004 0 5.00047L0 7.00047C0 7.26568 0.105357 7.52004 0.292893 7.70757C0.48043 7.89511 0.734784 8.00047 1 8.00047Z" fill="white"/>
<path d="M14.9999 8.00002C14.7347 8.00002 14.4803 8.10538 14.2928 8.29292C14.1053 8.48045 13.9999 8.73481 13.9999 9.00002V11H4.99991V8.50002C4.99988 8.40406 4.97224 8.31014 4.92029 8.22946C4.86833 8.14878 4.79426 8.08475 4.70691 8.04502C4.61961 8.00441 4.52233 7.99025 4.42708 8.00429C4.33183 8.01833 4.24277 8.05995 4.17091 8.12402L0.170907 11.624C0.11737 11.6709 0.0744712 11.7288 0.0450814 11.7936C0.0156917 11.8585 0.000488281 11.9288 0.000488281 12C0.000488281 12.0712 0.0156917 12.1416 0.0450814 12.2064C0.0744712 12.2713 0.11737 12.3291 0.170907 12.376L4.17091 15.876C4.26195 15.9558 4.37884 15.9999 4.49991 16C4.63251 16 4.75969 15.9473 4.85346 15.8536C4.94723 15.7598 4.99991 15.6326 4.99991 15.5V13H13.9999C14.5303 13 15.039 12.7893 15.4141 12.4142C15.7892 12.0392 15.9999 11.5305 15.9999 11V9.00002C15.9999 8.73481 15.8945 8.48045 15.707 8.29292C15.5195 8.10538 15.2651 8.00002 14.9999 8.00002Z" fill="white"/>
</g>
<defs>
<clipPath id="clip0_442_4019">
<rect width="16" height="16" fill="white"/>
</clipPath>
</defs>
</svg>