<svg xmlns="http://www.w3.org/2000/svg" width="20" height="20" viewBox="0 0 20 20" fill="none">
<path d="M9.99974 3.95833C11.4747 3.95833 12.7956 4.46667 13.8372 5.45834L16.6914 2.60417C14.9581 0.991667 12.6956 0 9.99974 0C6.09141 0 2.71224 2.24167 1.06641 5.50834L4.39141 8.0875C5.17891 5.71667 7.39141 3.95833 9.99974 3.95833Z" fill="#EA4335"/>
<path d="M19.5745 10.2298C19.5745 9.57565 19.512 8.94232 19.4162 8.33398H9.99951V12.0923H15.3912C15.1495 13.3257 14.4495 14.3757 13.3995 15.084L16.6203 17.584C18.4995 15.8423 19.5745 13.2673 19.5745 10.2298Z" fill="#4285F4"/>
<path d="M4.3875 11.9126C4.1875 11.3084 4.07083 10.6668 4.07083 10.0001C4.07083 9.33342 4.18333 8.69176 4.3875 8.08759L1.0625 5.50842C0.383333 6.85842 0 8.38342 0 10.0001C0 11.6168 0.383333 13.1418 1.06667 14.4918L4.3875 11.9126Z" fill="#FBBC05"/>
<path d="M10.0005 19.9999C12.7005 19.9999 14.9713 19.1124 16.6213 17.579L13.4005 15.079C12.5047 15.6832 11.3505 16.0374 10.0005 16.0374C7.39216 16.0374 5.17966 14.279 4.38799 11.9082L1.06299 14.4874C2.71299 17.7582 6.09216 19.9999 10.0005 19.9999Z" fill="#34A853"/>
</svg>