<svg xmlns="http://www.w3.org/2000/svg" width="16" height="16" viewBox="0 0 16 16" fill="none"><path d="M5 9C5.55228 9 6 8.55228 6 8C6 7.44772 5.55228 7 5 7C4.44772 7 4 7.44772 4 8C4 8.55228 4.44772 9 5 9Z" fill="#212121"></path><path d="M5 10C5.53043 10 6.03914 10.2107 6.41421 10.5858C6.78929 10.9609 7 11.4696 7 12H3C3 11.4696 3.21071 10.9609 3.58579 10.5858C3.96086 10.2107 4.46957 10 5 10Z" fill="#212121"></path><path d="M9.5 8.5H12.5" stroke="#212121" stroke-linecap="round" stroke-linejoin="round"></path><path d="M9.5 11.5H12.5" stroke="#212121" stroke-linecap="round" stroke-linejoin="round"></path><path d="M4.5 3.5H1.5C1.23478 3.5 0.98043 3.60536 0.792893 3.79289C0.605357 3.98043 0.5 4.23478 0.5 4.5V13.5C0.5 13.7652 0.605357 14.0196 0.792893 14.2071C0.98043 14.3946 1.23478 14.5 1.5 14.5H14.5C14.7652 14.5 15.0196 14.3946 15.2071 14.2071C15.3946 14.0196 15.5 13.7652 15.5 13.5V4.5C15.5 4.23478 15.3946 3.98043 15.2071 3.79289C15.0196 3.60536 14.7652 3.5 14.5 3.5H11.5" stroke="#212121" stroke-linecap="round" stroke-linejoin="round"></path><path d="M8 0.5C8.39782 0.5 8.77936 0.658035 9.06066 0.93934C9.34196 1.22064 9.5 1.60218 9.5 2V5.5H6.5V2C6.5 1.60218 6.65804 1.22064 6.93934 0.93934C7.22064 0.658035 7.60218 0.5 8 0.5Z" stroke="#212121" stroke-linecap="round" stroke-linejoin="round"></path></svg>