<svg xmlns="http://www.w3.org/2000/svg" width="16" height="20" viewBox="0 0 16 20" fill="none"><g clip-path="url(#clip0_1006_4547)"><path d="M5.92754 13.2617H3.33621L1 16.9997H14.0828L11.7466 13.2617H9.15526" stroke="#666666" stroke-width="1.2" stroke-miterlimit="10"></path><path d="M12.214 7.45983C12.214 10.2124 7.54157 15.131 7.54157 15.131C7.54157 15.131 2.86914 10.2124 2.86914 7.45983C2.86914 4.63769 5.28385 3 7.54157 3C9.79929 3 12.214 4.63722 12.214 7.45983Z" stroke="#666666" stroke-width="1.1" stroke-miterlimit="10" stroke-linecap="square"></path><path d="M7.54138 9.07299C8.31553 9.07299 8.94311 8.44541 8.94311 7.67126C8.94311 6.89711 8.31553 6.26953 7.54138 6.26953C6.76722 6.26953 6.13965 6.89711 6.13965 7.67126C6.13965 8.44541 6.76722 9.07299 7.54138 9.07299Z" stroke="#666666" stroke-width="1.1" stroke-miterlimit="10" stroke-linecap="square"></path></g><defs><clipPath id="clip0_1006_4547"><rect width="16" height="20" fill="white"></rect></clipPath></defs></svg>