<svg xmlns="http://www.w3.org/2000/svg" width="16" height="16" viewBox="0 0 16 16" fill="none"><path d="M11.6667 0.333008H4.33333C3.89147 0.333537 3.46785 0.509302 3.15541 0.821748C2.84296 1.13419 2.6672 1.55781 2.66667 1.99967V13.9997C2.6672 14.4415 2.84296 14.8652 3.15541 15.1776C3.46785 15.49 3.89147 15.6658 4.33333 15.6663H11.6667C12.1085 15.6658 12.5321 15.49 12.8446 15.1776C13.157 14.8652 13.3328 14.4415 13.3333 13.9997V1.99967C13.3328 1.55781 13.157 1.13419 12.8446 0.821748C12.5321 0.509302 12.1085 0.333537 11.6667 0.333008ZM12.6667 12.9997C12.6667 13.0881 12.6315 13.1729 12.569 13.2354C12.5065 13.2979 12.4217 13.333 12.3333 13.333H3.66667C3.57826 13.333 3.49348 13.2979 3.43097 13.2354C3.36845 13.1729 3.33333 13.0881 3.33333 12.9997V1.99967C3.33333 1.91127 3.36845 1.82648 3.43097 1.76397C3.49348 1.70146 3.57826 1.66634 3.66667 1.66634H12.3333C12.4217 1.66634 12.5065 1.70146 12.569 1.76397C12.6315 1.82648 12.6667 1.91127 12.6667 1.99967V12.9997Z" fill="#121212"></path><path d="M9.66666 4H6.33333C6.24492 4 6.16014 3.94732 6.09763 3.85355C6.03511 3.75979 6 3.63261 6 3.5C6 3.36739 6.03511 3.24021 6.09763 3.14645C6.16014 3.05268 6.24492 3 6.33333 3H9.66666C9.75507 3 9.83985 3.05268 9.90237 3.14645C9.96488 3.24021 10 3.36739 10 3.5C10 3.63261 9.96488 3.75979 9.90237 3.85355C9.83985 3.94732 9.75507 4 9.66666 4Z" fill="#121212"></path></svg>