<svg xmlns="http://www.w3.org/2000/svg" width="16" height="16" viewBox="0 0 16 16" fill="none"><g clip-path="url(#clip0_419_1733)"><path d="M15 0H7.5C7.23478 0 6.98043 0.105357 6.79289 0.292893C6.60536 0.48043 6.5 0.734784 6.5 1V8.5C6.5 8.59286 6.52586 8.68388 6.57467 8.76287C6.62349 8.84185 6.69334 8.90569 6.77639 8.94721C6.85945 8.98874 6.95242 9.00632 7.0449 8.99798C7.13738 8.98964 7.22572 8.95571 7.3 8.9L9.1665 7.5H15C15.2652 7.5 15.5196 7.39464 15.7071 7.20711C15.8946 7.01957 16 6.76522 16 6.5V1C16 0.734784 15.8946 0.48043 15.7071 0.292893C15.5196 0.105357 15.2652 0 15 0ZM11 5.5H8.5V4.5H11V5.5ZM14 3H8.5V2H14V3Z" fill="#666666"></path><path d="M10.5 8.5V13.5C10.5 13.6326 10.4473 13.7598 10.3536 13.8536C10.2598 13.9473 10.1326 14 10 14H2.5C2.36739 14 2.24021 13.9473 2.14645 13.8536C2.05268 13.7598 2 13.6326 2 13.5V3.5C2 3.36739 2.05268 3.24021 2.14645 3.14645C2.24021 3.05268 2.36739 3 2.5 3H5.5V1H2.5C2.10218 1 1.72064 1.15804 1.43934 1.43934C1.15804 1.72064 1 2.10218 1 2.5V14.5C1 14.8978 1.15804 15.2794 1.43934 15.5607C1.72064 15.842 2.10218 16 2.5 16H10C10.3978 16 10.7794 15.842 11.0607 15.5607C11.342 15.2794 11.5 14.8978 11.5 14.5V8.5H10.5Z" fill="#666666"></path></g><defs><clipPath id="clip0_419_1733"><rect width="16" height="16" fill="white"></rect></clipPath></defs></svg>