<svg xmlns="http://www.w3.org/2000/svg" width="22" height="16" viewBox="0 0 22 16" fill="none"><g clip-path="url(#clip0_944_29)"><path d="M20.1672 0H1.83339C1.33828 0.00820735 0.867127 0.189025 0.523413 0.502731C0.179703 0.816434 -0.00844779 1.23737 0.000291376 1.67308V2.23077H22.0003V1.67308C22.009 1.23737 21.8209 0.816434 21.4772 0.502731C21.1335 0.189025 20.6623 0.00820735 20.1672 0ZM0.000291376 13.9398C-0.00844779 14.3755 0.179703 14.7965 0.523413 15.1102C0.867127 15.4238 1.33828 15.6047 1.83339 15.6129H20.1672C20.6623 15.6047 21.1335 15.4238 21.4772 15.1102C21.8209 14.7965 22.009 14.3755 22.0003 13.9398V3.34553H0.000291376V13.9398ZM13.4444 5.85484C13.4433 5.78227 13.4748 5.71226 13.5321 5.66008C13.5894 5.6079 13.6678 5.57778 13.7503 5.5763H19.2503C19.3327 5.57778 19.4112 5.6079 19.4685 5.66008C19.5258 5.71226 19.5573 5.78227 19.5562 5.85484V6.41253C19.5573 6.48509 19.5258 6.55511 19.4685 6.60729C19.4112 6.65947 19.3327 6.68959 19.2503 6.69107H13.7503C13.6678 6.68959 13.5894 6.65947 13.5321 6.60729C13.4748 6.55511 13.4433 6.48509 13.4444 6.41253V5.85484ZM13.4444 8.085C13.4433 8.0124 13.4748 7.94243 13.5321 7.89019C13.5894 7.83803 13.6678 7.80794 13.7503 7.80645H19.2503C19.3327 7.80794 19.4112 7.83803 19.4685 7.89019C19.5258 7.94243 19.5573 8.0124 19.5562 8.085V8.64266C19.5573 8.71526 19.5258 8.78524 19.4685 8.8374C19.4112 8.88963 19.3327 8.91972 19.2503 8.92121H13.7503C13.6678 8.91972 13.5894 8.88963 13.5321 8.8374C13.4748 8.78524 13.4433 8.71526 13.4444 8.64266V8.085ZM13.4444 10.3152C13.4433 10.2426 13.4748 10.1726 13.5321 10.1204C13.5894 10.0682 13.6678 10.0381 13.7503 10.0366H19.2503C19.3327 10.0381 19.4112 10.0682 19.4685 10.1204C19.5258 10.1726 19.5573 10.2426 19.5562 10.3152V10.8728C19.5573 10.9454 19.5258 11.0154 19.4685 11.0676C19.4112 11.1198 19.3327 11.1499 19.2503 11.1514H13.7503C13.6678 11.1499 13.5894 11.1198 13.5321 11.0676C13.4748 11.0154 13.4433 10.9454 13.4444 10.8728V10.3152ZM6.72236 5.5763C7.37816 5.5979 7.99892 5.84235 8.45425 6.25828C8.9095 6.67421 9.16392 7.22927 9.16392 7.80674C9.16392 8.38427 8.9095 8.93931 8.45425 9.35525C7.99892 9.77119 7.37816 10.0156 6.72236 10.0373C6.06655 10.0156 5.44577 9.77119 4.99049 9.35525C4.53519 8.93931 4.28082 8.38427 4.28082 7.80674C4.28082 7.22927 4.53519 6.67421 4.99049 6.25828C5.44577 5.84235 6.06655 5.5979 6.72236 5.5763ZM2.56294 12.6958C2.71364 12.2544 3.02058 11.8669 3.43903 11.5898C3.85749 11.3127 4.36557 11.1604 4.88926 11.1551H5.20223C5.68178 11.339 6.19926 11.4339 6.72236 11.4339C7.24545 11.4339 7.76295 11.339 8.24248 11.1551H8.55545C9.07912 11.1604 9.58725 11.3127 10.0057 11.5898C10.4241 11.8669 10.7311 12.2544 10.8818 12.6958C10.9066 12.7765 10.91 12.8611 10.8917 12.9431C10.8734 13.0251 10.8339 13.1023 10.7763 13.1687C10.7187 13.2351 10.6445 13.289 10.5594 13.3261C10.4743 13.3632 10.3806 13.3826 10.2856 13.3827H3.15907C3.06381 13.3825 2.96989 13.3629 2.88462 13.3255C2.79935 13.2881 2.72501 13.234 2.66735 13.1673C2.6097 13.1005 2.5703 13.023 2.55219 12.9407C2.53408 12.8584 2.53776 12.7735 2.56294 12.6927V12.6958Z" fill="#666666"></path></g><defs><clipPath id="clip0_944_29"><rect width="22" height="15.6129" fill="white"></rect></clipPath></defs></svg>