<svg xmlns="http://www.w3.org/2000/svg" width="16" height="16" viewBox="0 0 16 16" fill="none"><path d="M10.75 3.39286C10.75 2.62354 11.3735 2 12.1429 2C12.9122 2 13.5357 2.62354 13.5357 3.39286C13.5357 4.16218 13.0522 5.25 12.1429 5.25C11.2143 5.25 10.75 4.16218 10.75 3.39286Z" stroke="#212121" stroke-width="1.2" stroke-miterlimit="10" stroke-linecap="square"></path><path d="M14.9289 9.42829V8.04356C14.9289 7.71392 14.7559 7.41074 14.4722 7.2429C14.0207 6.9757 13.2379 6.64258 12.1431 6.64258C11.0342 6.64258 10.2565 6.97361 9.80964 7.24035C9.52828 7.40842 9.35742 7.71067 9.35742 8.03845V9.42829H14.9289Z" stroke="#212121" stroke-width="1.2" stroke-miterlimit="10" stroke-linecap="square"></path><path d="M9.35714 15.0008H1V13.0316C1 12.2075 1.54043 11.4834 2.33088 11.2494C3.07071 11.0303 4.06614 10.8223 5.17857 10.8223C6.27266 10.8223 7.27413 11.0337 8.02232 11.255C8.81416 11.489 9.35714 12.2126 9.35714 13.0383V15.0008Z" stroke="#212121" stroke-width="1.2" stroke-miterlimit="10" stroke-linecap="square"></path><path d="M2.85742 6.17885C2.85742 4.89673 3.89673 3.85742 5.17885 3.85742C6.46098 3.85742 7.50028 4.89673 7.50028 6.17885C7.50028 7.46098 6.46098 8.96456 5.17885 8.96456C3.89673 8.96456 2.85742 7.46098 2.85742 6.17885Z" stroke="#212121" stroke-width="1.2" stroke-miterlimit="10" stroke-linecap="square"></path></svg>