<svg xmlns="http://www.w3.org/2000/svg" width="279" height="38" viewBox="0 0 279 38" fill="none">
<rect width="279" height="38" fill="white"/>
<g clip-path="url(#clip0_1318_138)">
<path d="M29.808 18.9061V24.2535H28.1133V11.0535H32.608C33.6922 11.0325 34.7343 11.443 35.5238 12.2009C36.3133 12.9061 36.7554 13.9272 36.7343 14.9798C36.7554 16.043 36.3133 17.064 35.5238 17.7798C34.7343 18.5272 33.7659 18.9061 32.6185 18.9061H29.808ZM29.808 12.6746V17.2851H32.6501C33.2817 17.3061 33.8922 17.0535 34.3238 16.6009C35.2185 15.7377 35.2291 14.3167 34.3659 13.4219L34.3238 13.3798C33.8922 12.9167 33.2817 12.664 32.6501 12.6851L29.808 12.6746ZM40.6396 14.9272C41.8922 14.9272 42.8817 15.264 43.608 15.9272C44.3343 16.6009 44.6922 17.5167 44.6922 18.6851V24.243H43.0712V22.9903H42.9975C42.2922 24.0219 41.3659 24.5377 40.1975 24.5377C39.208 24.5377 38.3659 24.243 37.7028 23.6535C37.0501 23.1061 36.6817 22.2956 36.7028 21.443C36.7028 20.5061 37.0606 19.7693 37.7659 19.2114C38.4712 18.6535 39.4185 18.3798 40.5975 18.3798C41.608 18.3798 42.4291 18.5693 43.0817 18.9272V18.5377C43.0817 17.9588 42.8291 17.4114 42.387 17.043C41.9343 16.643 41.3554 16.4219 40.7554 16.4219C39.808 16.4219 39.0606 16.8219 38.5028 17.6219L37.008 16.6851C37.8185 15.5167 39.0291 14.9272 40.6396 14.9272ZM38.4501 21.4851C38.4501 21.9272 38.6606 22.3377 39.008 22.5903C39.387 22.8851 39.8501 23.043 40.3238 23.0325C41.0396 23.0325 41.7238 22.7482 42.2291 22.243C42.787 21.7167 43.0712 21.0956 43.0712 20.3798C42.5449 19.9588 41.808 19.7482 40.8607 19.7482C40.1764 19.7482 39.5975 19.9167 39.1343 20.243C38.6817 20.5798 38.4501 20.9903 38.4501 21.4851ZM53.9975 15.2219L48.3343 28.2325H46.587L48.6922 23.6851L44.9659 15.2325H46.808L49.4922 21.7167H49.5343L52.1554 15.2325L53.9975 15.2219Z" fill="#5F6368"/>
<path d="M22.9573 17.7478C22.9573 17.232 22.9152 16.7162 22.831 16.2109H15.6836V19.1267H19.7783C19.6099 20.0636 19.0625 20.9057 18.2625 21.432V23.3267H20.7046C22.1362 22.0109 22.9573 20.0636 22.9573 17.7478Z" fill="#4285F4"/>
<path d="M15.6825 25.1585C17.7246 25.1585 19.4509 24.4849 20.7036 23.327L18.2614 21.4322C17.5772 21.8954 16.7035 22.1585 15.6825 22.1585C13.7035 22.1585 12.0299 20.8217 11.4299 19.0322H8.91406V20.9901C10.1983 23.5375 12.8193 25.1585 15.6825 25.1585Z" fill="#34A853"/>
<path d="M11.4305 19.0323C11.1147 18.0955 11.1147 17.0744 11.4305 16.1271V14.1797H8.91471C8.38015 15.2333 8.10156 16.3982 8.10156 17.5797C8.10156 18.7612 8.38015 19.926 8.91471 20.9797L11.4305 19.0323Z" fill="#FBBC04"/>
<path d="M15.6825 13.0005C16.7667 12.9794 17.8088 13.3899 18.5878 14.1373L20.7456 11.9794C19.3772 10.6847 17.5667 9.97941 15.6825 10.0005C12.8193 10.0005 10.1983 11.6215 8.91406 14.1794L11.4299 16.1373C12.0299 14.3373 13.7035 13.0005 15.6825 13.0005Z" fill="#EA4335"/>
</g>
<g clip-path="url(#clip1_1318_138)">
<path d="M106.694 23.9563V20.9626C106.694 20.2257 106.417 19.8573 105.727 19.8573C105.45 19.8573 105.128 19.9035 104.944 19.9494V24.3248C104.944 24.463 104.805 24.6011 104.667 24.6011H103.608C103.47 24.6011 103.331 24.463 103.331 24.3248V19.2125C103.331 19.0282 103.47 18.8902 103.608 18.8441C104.299 18.6139 104.989 18.4757 105.726 18.4757C107.384 18.4757 108.306 19.3507 108.306 20.9628V24.3709C108.306 24.5091 108.167 24.6473 108.029 24.6473H107.384C106.97 24.647 106.694 24.3248 106.694 23.9563ZM110.839 22.1601L110.793 22.5747C110.793 23.1275 111.161 23.4497 111.76 23.4497C112.22 23.4497 112.635 23.3115 113.095 23.0813C113.142 23.0813 113.188 23.0352 113.234 23.0352C113.326 23.0352 113.372 23.0813 113.418 23.1272C113.464 23.1734 113.556 23.3115 113.556 23.3115C113.648 23.4497 113.741 23.6338 113.741 23.772C113.741 24.0022 113.602 24.2325 113.418 24.3248C112.912 24.6011 112.313 24.7393 111.668 24.7393C110.931 24.7393 110.332 24.555 109.872 24.1866C109.411 23.772 109.135 23.2195 109.135 22.5286V20.7323C109.135 19.3046 110.056 18.4295 111.622 18.4295C113.142 18.4295 114.017 19.2587 114.017 20.7323V21.8376C114.017 21.9758 113.879 22.114 113.741 22.114H110.839L110.839 22.1601ZM110.793 21.1469H112.543V20.6864C112.543 20.1337 112.22 19.7653 111.668 19.7653C111.115 19.7653 110.793 20.0875 110.793 20.6864V21.1469ZM122.537 22.1601L122.491 22.5747C122.491 23.1275 122.859 23.4497 123.458 23.4497C123.919 23.4497 124.333 23.3115 124.794 23.0813C124.84 23.0813 124.886 23.0352 124.932 23.0352C125.024 23.0352 125.07 23.0813 125.116 23.1272C125.163 23.1734 125.255 23.3115 125.255 23.3115C125.347 23.4497 125.439 23.6338 125.439 23.772C125.439 24.0022 125.301 24.2325 125.117 24.3248C124.61 24.6011 124.011 24.7393 123.367 24.7393C122.63 24.7393 122.031 24.555 121.57 24.1866C121.11 23.772 120.834 23.2195 120.834 22.5286V20.7323C120.834 19.3046 121.755 18.4295 123.321 18.4295C124.841 18.4295 125.716 19.2587 125.716 20.7323V21.8376C125.716 21.9758 125.577 22.114 125.439 22.114H122.538V22.1601H122.537ZM122.491 21.1469H124.241V20.6864C124.241 20.1337 123.919 19.7653 123.366 19.7653C122.813 19.7653 122.491 20.0875 122.491 20.6864V21.1469ZM95.4098 24.647H96.0546C96.1928 24.647 96.331 24.5089 96.331 24.3707V20.9626C96.331 19.3966 95.5018 18.4754 94.1202 18.4754C93.7056 18.4754 93.2452 18.5675 92.9688 18.6598V16.9556C92.9688 16.5872 92.6465 16.2646 92.2778 16.2646H91.633C91.4949 16.2646 91.3567 16.4028 91.3567 16.541V24.3707C91.3567 24.5089 91.4949 24.647 91.633 24.647H92.6924C92.8306 24.647 92.9688 24.5089 92.9688 24.3707V20.0414C93.199 19.9494 93.5215 19.9032 93.7518 19.9032C94.4427 19.9032 94.7188 20.2255 94.7188 21.0085V24.0022C94.765 24.3248 95.0414 24.647 95.4098 24.647ZM102.364 20.7782V22.4824C102.364 23.9102 101.397 24.7852 99.7852 24.7852C98.2192 24.7852 97.206 23.9102 97.206 22.4824V20.7782C97.206 19.3505 98.1731 18.4754 99.7852 18.4754C101.397 18.4754 102.364 19.3507 102.364 20.7782ZM100.753 20.7782C100.753 20.2255 100.43 19.8571 99.8313 19.8571C99.2324 19.8571 98.9102 20.1793 98.9102 20.7782V22.4824C98.9102 23.0352 99.2324 23.3574 99.8313 23.3574C100.43 23.3574 100.753 23.0352 100.753 22.4824V20.7782ZM90.4819 19.9955C90.4819 21.4694 89.3766 22.4827 87.9027 22.4827C87.5343 22.4827 87.2117 22.4365 86.8895 22.2983V24.3709C86.8895 24.5091 86.7513 24.6473 86.6131 24.6473H85.5537C85.4155 24.6473 85.2773 24.5091 85.2773 24.3709V17.0479C85.2773 16.8635 85.4155 16.7256 85.5537 16.6795C86.2447 16.4492 86.9354 16.311 87.6722 16.311C89.3302 16.311 90.4816 17.3243 90.4816 18.8902C90.4819 18.89 90.4819 19.9955 90.4819 19.9955ZM88.8239 18.7979C88.8239 18.0611 88.3172 17.6927 87.6263 17.6927C87.2117 17.6927 86.9354 17.8309 86.9354 17.8309V20.8705C87.2117 21.0087 87.3499 21.0549 87.6722 21.0549C88.3631 21.0549 88.8698 20.6403 88.8698 19.9496V18.7982H88.8239V18.7979ZM120.234 19.9955C120.234 21.4694 119.129 22.4827 117.655 22.4827C117.287 22.4827 116.964 22.4365 116.642 22.2983V24.3709C116.642 24.5091 116.504 24.6473 116.366 24.6473H115.306C115.168 24.6473 115.03 24.5091 115.03 24.3709V17.0479C115.03 16.8635 115.168 16.7256 115.306 16.6795C115.997 16.4492 116.688 16.311 117.425 16.311C119.083 16.311 120.234 17.3243 120.234 18.8902C120.234 18.89 120.234 19.9955 120.234 19.9955ZM118.576 18.7979C118.576 18.0611 118.07 17.6927 117.379 17.6927C116.964 17.6927 116.688 17.8309 116.688 17.8309V20.8705C116.964 21.0087 117.102 21.0549 117.425 21.0549C118.116 21.0549 118.622 20.6403 118.622 19.9496V18.7982H118.576V18.7979Z" fill="#5F259F"/>
<path d="M73.2442 27.4894C77.7973 27.4894 81.4884 23.7983 81.4884 19.2452C81.4884 14.692 77.7973 11.001 73.2442 11.001C68.691 11.001 65 14.692 65 19.2452C65 23.7983 68.691 27.4894 73.2442 27.4894Z" fill="#5F259F"/>
<path d="M76.9859 17.0932C76.9859 16.771 76.7095 16.4946 76.3872 16.4946H75.282L72.7489 13.5931C72.5187 13.3167 72.1503 13.2247 71.7818 13.3167L70.9068 13.5931C70.7686 13.6393 70.7225 13.8233 70.8148 13.9154L73.578 16.5407H69.3865C69.2483 16.5407 69.1562 16.6328 69.1562 16.771V17.2314C69.1562 17.5537 69.4326 17.8301 69.7549 17.8301H70.3997V20.0409C70.3997 21.6989 71.2747 22.6662 72.7487 22.6662C73.2091 22.6662 73.5778 22.62 74.0383 22.436V23.9099C74.0383 24.3245 74.3605 24.6467 74.7751 24.6467H75.4199C75.5581 24.6467 75.6963 24.5085 75.6963 24.3704V17.7842H76.7556C76.8938 17.7842 76.9859 17.6921 76.9859 17.554V17.0932ZM74.0383 21.0541C73.7619 21.1923 73.3935 21.2384 73.1171 21.2384C72.3802 21.2384 72.0118 20.87 72.0118 20.0409V17.8301H74.0383V21.0541Z" fill="white"/>
</g>
<g clip-path="url(#clip2_1318_138)">
<path d="M183.845 16.2526C183.426 15.0584 182.288 14.2012 180.955 14.2012H180.925C180.057 14.2012 179.274 14.5643 178.717 15.1445C178.159 14.5643 177.376 14.2012 176.508 14.2012H176.482C175.718 14.2012 175.018 14.4819 174.483 14.9424V14.7103C174.464 14.4744 174.273 14.291 174.034 14.291H171.982C171.731 14.291 171.529 14.4932 171.529 14.744V25.8771C171.529 26.1279 171.731 26.3301 171.982 26.3301H174.034C174.262 26.3301 174.453 26.1579 174.479 25.9408V17.9484C174.479 17.9185 174.479 17.896 174.483 17.8698C174.516 17.5142 174.778 17.2184 175.19 17.1847H175.568C175.741 17.1997 175.887 17.2596 175.999 17.3532C176.179 17.4954 176.276 17.7126 176.276 17.9521L176.283 25.9033C176.283 26.1541 176.486 26.36 176.736 26.36H178.788C179.031 26.36 179.226 26.1691 179.237 25.9295V17.9447C179.237 17.6826 179.357 17.443 179.57 17.3045C179.675 17.2371 179.802 17.1922 179.948 17.1772H180.326C180.772 17.2147 181.038 17.5516 181.038 17.9447L181.045 25.8883C181.045 26.1392 181.247 26.3413 181.498 26.3413H183.549C183.789 26.3413 183.987 26.1541 184.002 25.9183V17.2072C183.991 16.7168 183.928 16.4884 183.845 16.2526ZM169.964 14.321H168.793V12.4193C168.793 12.4155 168.793 12.4155 168.793 12.4118C168.793 12.1872 168.609 12 168.377 12C168.351 12 168.325 12.0037 168.299 12.0075C167 12.3631 167.258 14.1637 164.884 14.3172H164.656C164.622 14.3172 164.589 14.321 164.555 14.3285C164.357 14.3771 164.203 14.5568 164.203 14.7739V16.8254C164.203 17.0762 164.405 17.2783 164.656 17.2783H165.891L165.888 25.9707C165.888 26.2178 166.09 26.4199 166.337 26.4199H168.366C168.613 26.4199 168.815 26.2178 168.815 25.9707V17.2783H169.964C170.211 17.2783 170.417 17.0724 170.417 16.8254V14.7739C170.417 14.5231 170.215 14.321 169.964 14.321Z" fill="#00BAF2"/>
<path d="M162.591 14.3211H160.54C160.292 14.3211 160.087 14.5233 160.087 14.7741V19.0155C160.083 19.2775 159.869 19.4871 159.607 19.4871H158.75C158.484 19.4871 158.267 19.2738 158.267 19.008L158.26 14.7741C158.26 14.5233 158.058 14.3211 157.807 14.3211H155.755C155.505 14.3211 155.302 14.5233 155.302 14.7741V19.4198C155.302 21.183 156.56 22.4445 158.327 22.4445C158.327 22.4445 159.652 22.4445 159.694 22.452C159.933 22.4782 160.117 22.6803 160.117 22.9274C160.117 23.1707 159.937 23.3729 159.697 23.4028C159.686 23.4028 159.675 23.4066 159.664 23.4103L156.665 23.4216C156.414 23.4216 156.212 23.6237 156.212 23.8745V25.9222C156.212 26.173 156.414 26.3752 156.665 26.3752H160.015C161.782 26.3752 163.04 25.1174 163.04 23.3542V14.7741C163.044 14.5233 162.842 14.3211 162.591 14.3211ZM150.926 14.3324H148.081C147.83 14.3324 147.625 14.5233 147.625 14.7554V15.5527C147.625 15.5565 147.625 15.564 147.625 15.5677C147.625 15.5752 147.625 15.5789 147.625 15.5864V16.6795C147.625 16.9266 147.842 17.1325 148.107 17.1325H150.818C151.031 17.1662 151.2 17.3234 151.226 17.5667V17.8325C151.203 18.0646 151.035 18.2331 150.829 18.2518H149.489C147.703 18.2518 146.434 19.4385 146.434 21.1006V23.4852C146.434 25.1398 147.527 26.3153 149.298 26.3153H153.015C153.681 26.3153 154.224 25.8099 154.224 25.1885V17.4095C154.224 15.5228 153.251 14.3324 150.926 14.3324ZM151.252 22.89V23.2119C151.252 23.2381 151.248 23.2643 151.244 23.2868C151.241 23.3093 151.233 23.3317 151.226 23.3542C151.162 23.5339 150.982 23.6649 150.769 23.6649H149.916C149.65 23.6649 149.433 23.4627 149.433 23.2119V22.8263C149.433 22.8226 149.433 22.8151 149.433 22.8114V21.7819V21.46V21.4562C149.433 21.2092 149.65 21.007 149.916 21.007H150.769C151.035 21.007 151.252 21.2092 151.252 21.46V22.89ZM142.926 14.3174H138.445C138.198 14.3174 138 14.5195 138 14.7629V16.7731C138 16.7769 138 16.7806 138 16.7843C138 16.7956 138 16.8031 138 16.8106V25.9035C138 26.1506 138.183 26.3527 138.416 26.3565H140.504C140.755 26.3565 140.957 26.1543 140.957 25.9035L140.965 22.7889H142.926C144.566 22.7889 145.712 21.6509 145.712 20V17.11C145.712 15.4629 144.566 14.3174 142.926 14.3174ZM142.747 18.0759V19.3412C142.747 19.6069 142.533 19.8241 142.268 19.8241H140.969V17.2897H142.268C142.533 17.2897 142.747 17.5031 142.747 17.7689V18.0759Z" fill="#20336B"/>
</g>
<g clip-path="url(#clip3_1318_138)">
<path fill-rule="evenodd" clip-rule="evenodd" d="M225.251 23.7333C222.418 25.8657 218.31 26.9997 214.774 26.9997C209.816 26.9997 205.352 25.1301 201.974 22.0196C201.709 21.7753 201.945 21.4418 202.264 21.6308C205.909 23.7938 210.416 25.097 215.071 25.097C218.211 25.097 221.663 24.432 224.839 23.0582C225.318 22.8513 225.72 23.3802 225.251 23.7333Z" fill="#F79C34"/>
<path fill-rule="evenodd" clip-rule="evenodd" d="M226.43 22.3604C226.067 21.8876 224.035 22.1358 223.121 22.2478C222.845 22.2822 222.802 22.0352 223.051 21.8564C224.673 20.6951 227.33 21.0298 227.639 21.4193C227.951 21.8113 227.557 24.5291 226.038 25.8253C225.804 26.0245 225.582 25.9182 225.685 25.6554C226.028 24.7843 226.793 22.8345 226.43 22.3604Z" fill="#F79C34"/>
<path fill-rule="evenodd" clip-rule="evenodd" d="M264.395 23.5345C264.395 23.3346 264.395 23.1539 264.395 22.9541C264.395 22.7887 264.474 22.6754 264.644 22.6849C264.959 22.7307 265.405 22.7766 265.722 22.7097C266.135 22.6219 266.432 22.3235 266.607 21.9137C266.854 21.3371 267.018 20.8713 267.121 20.5665L263.982 12.6338C263.928 12.4995 263.914 12.2494 264.177 12.2494H265.275C265.484 12.2494 265.569 12.3844 265.616 12.5174L267.892 18.9604L270.065 12.5174C270.109 12.385 270.199 12.2494 270.406 12.2494H271.441C271.703 12.2494 271.688 12.4989 271.636 12.6338L268.522 20.8134C268.119 21.9029 267.582 23.6369 266.373 23.9379C265.767 24.0995 265.002 24.041 264.552 23.8488C264.438 23.7915 264.395 23.6369 264.395 23.5345ZM251.519 13.3262C253.236 13.3262 253.704 14.7038 253.704 16.2807C253.714 17.3434 253.522 18.2916 252.983 18.8344C252.579 19.241 252.127 19.3517 251.448 19.3517C250.843 19.3517 250.047 19.0304 249.453 18.5824V14.0726C250.072 13.5883 250.861 13.3262 251.519 13.3262ZM249.191 23.817H248.154C248.009 23.817 247.89 23.6967 247.89 23.5485C247.89 19.8761 247.89 16.2037 247.89 12.5314C247.89 12.3837 248.008 12.2628 248.154 12.2628H248.947C249.114 12.2628 249.228 12.3856 249.249 12.5314L249.332 13.1085C250.076 12.4359 251.033 12.0045 251.945 12.0045C254.498 12.0045 255.338 14.1502 255.338 16.3813C255.338 18.7682 254.053 20.6868 251.881 20.6868C250.967 20.6868 250.112 20.3425 249.453 19.745V23.5491C249.453 23.6967 249.335 23.817 249.191 23.817ZM262.931 20.2165C262.931 20.3642 262.812 20.4857 262.666 20.4857H261.893C261.725 20.4857 261.611 20.3623 261.591 20.2165L261.513 19.6795C261.157 19.9862 260.72 20.256 260.247 20.4437C259.337 20.8039 258.287 20.8637 257.398 20.3069C256.755 19.9041 256.414 19.1169 256.414 18.3049C256.414 17.6769 256.603 17.0539 257.024 16.6014C257.586 15.9835 258.4 15.68 259.383 15.68C259.976 15.68 260.826 15.7513 261.445 15.9575V14.8769C261.445 13.7773 260.99 13.3013 259.794 13.3013C258.879 13.3013 258.179 13.4426 257.205 13.7512C257.049 13.7563 256.958 13.6354 256.958 13.4878V12.8718C256.958 12.7242 257.082 12.581 257.216 12.5371C257.911 12.2284 258.896 12.0356 259.944 12C261.309 12 262.931 12.3137 262.931 14.455L262.931 20.2165ZM261.443 18.6384V17.0068C260.924 16.8617 260.064 16.8019 259.731 16.8019C259.206 16.8019 258.631 16.9285 258.33 17.2581C258.106 17.5 258.004 17.8474 258.004 18.1834C258.004 18.6174 258.151 19.0533 258.495 19.2684C258.895 19.5452 259.515 19.5115 260.097 19.3428C260.657 19.1806 261.182 18.8936 261.443 18.6384ZM200.969 20.6811C200.869 20.7727 200.725 20.7784 200.612 20.7173C200.111 20.2923 200.021 20.0956 199.747 19.6915C198.918 20.5525 198.332 20.8102 197.259 20.8102C195.988 20.8096 195 20.0097 195 18.4106C195 17.1608 195.663 16.3113 196.61 15.8951C197.428 15.5279 198.572 15.4617 199.447 15.3618V15.162C199.447 14.7948 199.476 14.3621 199.264 14.0459C199.08 13.762 198.727 13.6456 198.417 13.6456C197.841 13.6456 197.329 13.9466 197.204 14.5696C197.178 14.7083 197.078 14.8458 196.941 14.8528L195.479 14.6911C195.354 14.6625 195.218 14.5613 195.253 14.3698C195.585 12.5848 197.148 12.0286 198.568 12.0134H198.68C199.408 12.0229 200.336 12.2259 200.901 12.7795C201.635 13.4795 201.565 14.4124 201.565 15.4286V17.8264C201.565 18.548 201.858 18.8643 202.134 19.2525C202.23 19.3931 202.253 19.5592 202.129 19.6623C201.821 19.9257 201.273 20.4106 200.972 20.6842L200.969 20.6811ZM199.447 16.9279C199.447 17.5273 199.461 18.0275 199.164 18.5608C198.925 18.9935 198.544 19.2601 198.12 19.2601C197.541 19.2601 197.203 18.8102 197.203 18.1439C197.203 16.8324 198.356 16.5944 199.448 16.5944L199.447 16.9279ZM220.754 20.6811C220.654 20.7727 220.51 20.7784 220.397 20.7173C219.896 20.2923 219.806 20.0956 219.532 19.6915C218.703 20.5525 218.117 20.8102 217.044 20.8102C215.773 20.8102 214.785 20.0104 214.785 18.4112C214.785 17.1614 215.449 16.3119 216.395 15.8951C217.214 15.5286 218.357 15.4617 219.232 15.3618V15.162C219.232 14.7948 219.26 14.3621 219.049 14.0459C218.866 13.762 218.513 13.6456 218.202 13.6456C217.626 13.6456 217.115 13.9466 216.989 14.5696C216.963 14.7083 216.864 14.8458 216.728 14.8528L215.265 14.6911C215.141 14.6625 215.004 14.5613 215.039 14.3691C215.371 12.5842 216.934 12.028 218.354 12.0127H218.467C219.194 12.0223 220.122 12.2253 220.688 12.7789C221.422 13.4789 221.351 14.4118 221.351 15.428V17.8258C221.351 18.5474 221.645 18.8637 221.921 19.2518C222.018 19.3925 222.039 19.5585 221.916 19.6616C221.608 19.9251 221.06 20.41 220.759 20.6836L220.754 20.6811ZM219.232 16.9279C219.232 17.5273 219.246 18.0275 218.95 18.5608C218.71 18.9935 218.328 19.2601 217.905 19.2601C217.327 19.2601 216.987 18.8102 216.987 18.1439C216.987 16.8324 218.14 16.5944 219.232 16.5944V16.9279ZM239.342 20.7002H237.838C237.687 20.6906 237.567 20.5684 237.567 20.417L237.565 12.5142C237.578 12.3691 237.703 12.2558 237.855 12.2558H239.255C239.387 12.2628 239.496 12.3544 239.523 12.4766V13.6851H239.552C239.975 12.6039 240.566 12.0891 241.609 12.0891C242.285 12.0891 242.948 12.3385 243.369 13.0201C243.764 13.652 243.764 14.7153 243.764 15.4802V20.452C243.748 20.5926 243.624 20.7008 243.475 20.7008H241.962C241.822 20.6919 241.71 20.5869 241.693 20.452V16.163C241.693 15.2988 241.791 14.0344 240.749 14.0344C240.382 14.0344 240.044 14.2839 239.876 14.6663C239.664 15.1487 239.636 15.631 239.636 16.163V20.417C239.633 20.5735 239.503 20.7002 239.342 20.7002ZM232.999 13.7016C231.886 13.7016 231.816 15.2473 231.816 16.2114C231.816 17.1754 231.802 19.2372 232.986 19.2372C234.155 19.2372 234.212 17.5751 234.212 16.5607C234.212 15.8964 234.183 15.0977 233.986 14.4659C233.817 13.9173 233.478 13.7016 232.999 13.7016ZM232.986 12.0891C235.225 12.0891 236.437 14.0516 236.437 16.5448C236.437 18.9547 235.098 20.8669 232.986 20.8669C230.787 20.8669 229.59 18.905 229.59 16.4621C229.59 14.0007 230.801 12.0891 232.986 12.0891ZM205.091 20.7002H203.582C203.438 20.6906 203.323 20.5805 203.311 20.4405L203.312 12.5396C203.312 12.3818 203.443 12.2558 203.604 12.2558H205.009C205.156 12.2634 205.274 12.3767 205.283 12.5212V13.5527H205.311C205.678 12.5555 206.368 12.0897 207.298 12.0897C208.242 12.0897 208.834 12.5555 209.257 13.5527C209.623 12.5555 210.454 12.0897 211.341 12.0897C211.975 12.0897 212.666 12.3557 213.088 12.9545C213.567 13.6195 213.469 14.5836 213.469 15.4312L213.467 20.4163C213.467 20.5735 213.337 20.7002 213.176 20.7002H211.669C211.517 20.6906 211.397 20.5684 211.397 20.417V16.2285C211.397 15.8964 211.426 15.0653 211.355 14.7497C211.242 14.217 210.905 14.0675 210.468 14.0675C210.101 14.0675 209.721 14.3169 209.566 14.7159C209.411 15.1156 209.426 15.7799 209.426 16.2292V20.417C209.426 20.5742 209.295 20.7008 209.134 20.7008H207.627C207.475 20.6912 207.355 20.5691 207.355 20.4176L207.354 16.2292C207.354 15.3478 207.495 14.0522 206.425 14.0522C205.339 14.0522 205.382 15.3147 205.382 16.2292L205.381 20.417C205.382 20.5735 205.252 20.7002 205.091 20.7002ZM223.187 13.6494V12.5205C223.188 12.3487 223.315 12.2342 223.467 12.2348L228.428 12.2342C228.587 12.2342 228.715 12.3519 228.715 12.5193V13.4871C228.713 13.6494 228.579 13.8613 228.341 14.1979L225.771 17.9397C226.725 17.9174 227.734 18.0631 228.6 18.5595C228.796 18.6715 228.848 18.8376 228.864 18.9998V20.2044C228.864 20.3712 228.685 20.5627 228.498 20.4628C226.972 19.647 224.945 19.5579 223.257 20.473C223.085 20.5659 222.904 20.3769 222.904 20.2108V19.066C222.904 18.8834 222.908 18.5697 223.089 18.2903L226.066 13.9339H223.473C223.315 13.9339 223.188 13.8187 223.187 13.6494Z" fill="#333E47"/>
</g>
<defs>
<clipPath id="clip0_1318_138">
<rect width="46" height="18.3158" fill="white" transform="translate(8 10)"/>
</clipPath>
<clipPath id="clip1_1318_138">
<rect width="60.7143" height="16.49" fill="white" transform="translate(65 11)"/>
</clipPath>
<clipPath id="clip2_1318_138">
<rect width="46" height="14.4199" fill="white" transform="translate(138 12)"/>
</clipPath>
<clipPath id="clip3_1318_138">
<rect width="76.6667" height="15" fill="white" transform="translate(195 12)"/>
</clipPath>
</defs>
</svg>