<svg xmlns="http://www.w3.org/2000/svg" width="48" height="48" viewBox="0 0 48 48" fill="none">
<path d="M24 46.5H7C4.79086 46.5 3 44.7091 3 42.5V5.5C3 3.29086 4.79086 1.5 7 1.5H35C37.2091 1.5 39 3.29086 39 5.5V24" stroke="#666666" stroke-width="2" stroke-miterlimit="10" stroke-linecap="square"/>
<path d="M18.75 12H30.75" stroke="#666666" stroke-width="2" stroke-miterlimit="10" stroke-linecap="square"/>
<path d="M11.25 34.5H21" stroke="#666666" stroke-width="2" stroke-miterlimit="10" stroke-linecap="square"/>
<path d="M11.25 12H13.5" stroke="#666666" stroke-width="2" stroke-miterlimit="10" stroke-linecap="square"/>
<path d="M18.75 19.5H30.75" stroke="#666666" stroke-width="2" stroke-miterlimit="10" stroke-linecap="square"/>
<path d="M11.25 19.5H13.5" stroke="#666666" stroke-width="2" stroke-miterlimit="10" stroke-linecap="square"/>
<path d="M18.75 27H25.5" stroke="#666666" stroke-width="2" stroke-miterlimit="10" stroke-linecap="square"/>
<path d="M11.25 27H13.5" stroke="#666666" stroke-width="2" stroke-miterlimit="10" stroke-linecap="square"/>
<path d="M35.25 34.5V40.5" stroke="#666666" stroke-width="2" stroke-miterlimit="10" stroke-linecap="square"/>
<path d="M32.25 37.5H38.25" stroke="#666666" stroke-width="2" stroke-miterlimit="10" stroke-linecap="square"/>
<path d="M35.25 46.5C40.2206 46.5 44.25 42.4706 44.25 37.5C44.25 32.5294 40.2206 28.5 35.25 28.5C30.2794 28.5 26.25 32.5294 26.25 37.5C26.25 42.4706 30.2794 46.5 35.25 46.5Z" stroke="#666666" stroke-width="2" stroke-miterlimit="10" stroke-linecap="square"/>
</svg>