<svg xmlns="http://www.w3.org/2000/svg" width="16" height="16" viewBox="0 0 16 16" fill="none"><path d="M14.1333 12.6438C14.1335 12.4937 14.0975 12.3457 14.0282 12.2125C13.959 12.0792 13.8587 11.9647 13.7357 11.8785C12.052 10.7881 10.0709 10.248 8.06667 10.3329C6.06245 10.248 4.08138 10.7881 2.3976 11.8785C2.27466 11.9647 2.17432 12.0792 2.1051 12.2125C2.03588 12.3457 1.99983 12.4937 2 12.6438V14.9996H14.1333V12.6438Z" stroke="#212121" stroke-width="1.2" stroke-linecap="round" stroke-linejoin="round"></path><path d="M8.06647 7.53333C9.8706 7.53333 11.3331 6.0708 11.3331 4.26667C11.3331 2.46254 9.8706 1 8.06647 1C6.26234 1 4.7998 2.46254 4.7998 4.26667C4.7998 6.0708 6.26234 7.53333 8.06647 7.53333Z" stroke="#212121" stroke-width="1.2" stroke-linecap="round" stroke-linejoin="round"></path></svg>